<svg version="1.2" xmlns="http://www.w3.org/2000/svg" viewBox="0 0 821 821" width="821" height="821">
	<title>MK-logo</title>
	<style>
		.s0 { fill: #14181e } 
		.s1 { fill: #ffffff } 
	</style>
	<path id="Shape 1" class="s0" d="m410 36.6c207 0 374.4 167.4 374.4 374.4 0 207-167.4 374.4-374.4 374.4"/>
	<path id="Shape 2" class="s1" d="m410 785.4c-207 0-374.4-167.4-374.4-374.4 0-207 167.4-374.4 374.4-374.4"/>
	<path id="K" class="s1" d="m452.8 661h-45.5v-508.8h45.5v292q76.7-2.5 129-39.4 52.3-37.3 78.8-102.1 26.9-65.2 26.9-150.5h46.6q0 85.6-25.8 154.1-25.4 68-73.8 112.5l124 242.2h-54.9l-108.2-212.8q-29.7 18.2-65.5 28.6-35.9 10.4-77.1 12.2z"/>
	<path id="M" fill-rule="evenodd" class="s0" d="m128.2 661h-44.4v-508.8h72.8l89.2 233.2h2.8l89.3-233.2h72.1v508.8h-43.8v-457.6h-5.4l-89.2 230.8h-48.8l-89.2-230.8h-5.4z"/>
	<path id="Shape 3" class="s1" d="m477.5 434c-8.6 0-15.5-6.9-15.5-15.5 0-8.6 6.9-15.5 15.5-15.5 8.6 0 15.5 6.9 15.5 15.5 0 8.6-6.9 15.5-15.5 15.5z"/>
	<path id="Shape 3 copy" class="s1" d="m534.5 419c-8.6 0-15.5-6.9-15.5-15.5 0-8.6 6.9-15.5 15.5-15.5 8.6 0 15.5 6.9 15.5 15.5 0 8.6-6.9 15.5-15.5 15.5z"/>
	<path id="Shape 3 copy 2" class="s1" d="m658.5 237c-8.6 0-15.5-6.9-15.5-15.5 0-8.6 6.9-15.5 15.5-15.5 8.6 0 15.5 6.9 15.5 15.5 0 8.6-6.9 15.5-15.5 15.5z"/>
	<path id="Shape 3 copy 3" class="s1" d="m663.5 182c-8.6 0-15.5-6.9-15.5-15.5 0-8.6 6.9-15.5 15.5-15.5 8.6 0 15.5 6.9 15.5 15.5 0 8.6-6.9 15.5-15.5 15.5z"/>
	<path id="Shape 3 copy 4" class="s1" d="m645.5 290c-8.6 0-15.5-6.9-15.5-15.5 0-8.6 6.9-15.5 15.5-15.5 8.6 0 15.5 6.9 15.5 15.5 0 8.6-6.9 15.5-15.5 15.5z"/>
	<path id="Shape 3 copy 5" class="s1" d="m622.5 342c-8.6 0-15.5-6.9-15.5-15.5 0-8.6 6.9-15.5 15.5-15.5 8.6 0 15.5 6.9 15.5 15.5 0 8.6-6.9 15.5-15.5 15.5z"/>
	<path id="Shape 3 copy 6" class="s1" d="m584.5 388c-8.6 0-15.5-6.9-15.5-15.5 0-8.6 6.9-15.5 15.5-15.5 8.6 0 15.5 6.9 15.5 15.5 0 8.6-6.9 15.5-15.5 15.5z"/>
</svg>